<svg width="433" height="434" viewBox="0 0 433 434" fill="none" xmlns="http://www.w3.org/2000/svg">
<g clip-path="url(#clip0_223_21089)">
<path fill-rule="evenodd" clip-rule="evenodd" d="M267.449 261.759C253.1 298.459 231.73 334.564 199.976 357.854C188.423 366.33 175.656 371.721 162.634 377.357C161.722 377.754 160.655 377.333 160.255 376.417C159.859 375.498 160.28 374.431 161.199 374.035C173.969 368.505 186.505 363.247 197.835 354.935C229.138 331.976 250.109 296.307 264.205 260.12L263.666 259.859C257.804 257.033 253.463 249.347 250.902 239.597C247.229 225.621 247.02 207.447 249.976 194.813C251.305 189.136 253.304 184.554 255.83 181.814C257.798 179.677 260.105 178.577 262.678 178.661C268.16 178.845 272.101 183.731 274.333 191.37C279.004 207.347 276.811 235.436 272.755 247.277C271.487 250.975 270.154 254.683 268.747 258.386C269.764 258.911 270.763 259.421 271.756 259.873C274.59 261.153 277.43 261.966 280.936 261.206C286.398 260.016 291.215 256.539 295.408 252.111C301.947 245.195 306.945 235.939 310.321 228.764C329.121 188.804 323.722 151.603 311.201 120.258C298.549 88.6044 278.655 62.8706 268.719 46.1705C268.206 45.3125 268.492 44.2039 269.35 43.6911C270.208 43.1783 271.321 43.4612 271.83 44.3223C281.831 61.1294 301.828 87.0509 314.559 118.917C327.42 151.092 332.894 189.283 313.6 230.304C310.084 237.778 304.849 247.397 298.039 254.597C293.322 259.58 287.851 263.404 281.703 264.743C276.186 265.943 272.008 264.07 267.449 261.759ZM265.505 256.727L265.235 256.599C260.111 254.129 256.643 247.204 254.405 238.678C250.875 225.248 250.66 207.783 253.504 195.637C254.476 191.472 255.8 187.952 257.508 185.499C258.919 183.477 260.557 182.212 262.556 182.282C264.445 182.34 265.993 183.308 267.282 184.871C268.798 186.702 269.956 189.298 270.859 192.384C275.347 207.736 273.229 234.726 269.33 246.104C268.117 249.636 266.845 253.181 265.505 256.727Z" fill="#4731D8"/>
<path fill-rule="evenodd" clip-rule="evenodd" d="M155.511 376.042C156.132 376.534 157.166 376.939 158.284 377.361C160.945 378.369 164.158 379.123 165.657 379.54C166.622 379.81 167.18 380.81 166.913 381.772C166.643 382.737 165.646 383.298 164.681 383.028C162.844 382.515 158.564 381.503 155.599 380.171C154.01 379.456 152.773 378.598 152.165 377.745C151.128 376.296 151.485 374.54 153.657 372.792C156.228 370.726 161.972 368.038 164.606 363.211C165.083 362.335 166.188 362.012 167.061 362.491C167.94 362.971 168.264 364.07 167.784 364.949C165.27 369.549 160.33 372.532 157.154 374.716C156.551 375.132 155.894 375.699 155.511 376.042Z" fill="#4731D8"/>
</g>
<defs>
<clipPath id="clip0_223_21089">
<rect width="307.002" height="307.002" fill="white" transform="matrix(-0.763882 0.645357 0.645357 0.763882 234.744 0.385773)"/>
</clipPath>
</defs>
</svg>
