<svg width="43" height="43" viewBox="0 0 43 43" fill="none" xmlns="http://www.w3.org/2000/svg">
<path d="M0.550049 21.7853C0.550049 10.1873 9.95207 0.785278 21.55 0.785278C33.148 0.785278 42.55 10.1873 42.55 21.7853C42.55 33.3833 33.148 42.7853 21.55 42.7853C9.95207 42.7853 0.550049 33.3833 0.550049 21.7853Z" fill="#FCFCFC"/>
<path d="M29.3611 17.214C29.3611 17.214 28.7982 17.6384 28.5186 17.8134C28.2876 17.958 28.1345 17.9631 28.1345 17.9631C28.1345 17.9631 27.4547 16.7973 26.1982 16.5608C24.7208 16.2828 24.6156 17.5888 24.6156 17.5888C24.6156 17.5888 23.4256 16.5438 23.1917 16.8726C23.1917 16.8726 23.0674 17.0212 23.1917 17.1554C23.316 17.2896 24.4803 18.1959 25.1413 18.9659C26.4159 20.4497 26.6918 21.3264 26.8928 21.7464C26.9559 21.8787 26.981 22.1508 26.8965 22.2702C26.7597 22.4641 26.3579 22.7895 25.9322 22.9852C25.6463 23.1165 25.2815 23.1547 25.1992 23.2922C24.8842 23.8189 26.2244 24.3961 26.0698 24.5992C25.9459 24.762 24.7606 25.282 22.6251 25.1241C20.4899 24.9662 18.6359 24.4028 17.8896 23.181C17.8582 23.1294 18.0456 23.046 18.295 23.046C18.5451 23.046 18.6705 23.1324 18.8026 23.0968C18.8867 23.0742 18.9819 22.8863 18.8395 22.6728C18.7373 22.5197 18.4872 22.3973 18.274 22.3847C17.6848 22.3503 17.3532 22.602 17.0688 22.9104C16.3708 23.6669 16.5767 24.623 16.8582 24.6619C17.0419 24.6875 17.2905 24.5121 17.265 24.3942C17.192 24.0591 17.2986 23.8582 17.2986 23.8582C17.3001 23.83 17.3396 23.8341 17.348 23.8608C17.5307 24.4398 18.5226 26.4627 20.5172 27.359C22.9973 28.4733 24.1833 28.0218 24.4862 28.0414C24.5175 28.0433 24.5304 28.0696 24.5157 28.0974C24.3962 28.3235 24.166 29.029 24.3441 29.1127C24.5633 29.2154 24.6927 28.9393 24.8082 28.652C24.9233 28.3647 25.3073 27.749 25.2985 27.6163C25.2896 27.4836 25.0366 27.2522 25.0366 27.2522C25.0366 27.2522 24.7982 27.1099 24.8388 26.5061C24.8794 25.9022 25.0864 25.507 25.0864 25.507C25.0864 25.507 26.5929 25.2446 26.8172 24.8984C27.0415 24.5521 26.663 24.2571 26.5143 24.104C26.4085 23.995 26.1241 23.687 26.0126 23.5665C25.9953 23.5476 26.0079 23.5172 26.0333 23.5161C26.2137 23.5079 26.8762 23.3949 27.3012 23.019C27.8261 22.5549 27.7177 22.1527 27.5852 21.7572C27.4528 21.362 26.5003 19.7172 26.5003 19.7172C26.5003 19.7172 27.0135 19.4055 26.9555 18.6356C26.8976 17.8657 26.6792 17.4153 26.6792 17.4153C26.6792 17.4153 27.0293 17.4909 27.5653 17.9431C27.9704 18.2849 28.0822 18.7979 28.2146 18.8484C28.347 18.8988 28.6218 18.6945 28.9136 18.3765C29.4445 17.7975 29.3611 17.214 29.3611 17.214ZM22.1215 27.5143C19.592 26.7492 18.7391 25.2553 18.7391 25.2553C18.7391 25.2553 19.6706 25.8929 20.3697 26.1595C21.0684 26.426 21.6221 26.628 22.0614 26.6406C22.119 26.6425 22.2123 26.6169 22.2407 26.4946C22.2691 26.3722 22.1219 26.2966 22.1219 26.2966C22.1219 26.2966 20.6936 25.9441 19.7112 25.3858C18.5222 24.7101 18.0751 24.1162 18.0751 24.1162C18.0751 24.1162 19.3685 25.0848 21.5933 25.4307C23.8177 25.7765 24.4235 25.5619 24.4235 25.5619C24.4235 25.5619 24.3932 25.6134 24.3401 25.9207C24.287 26.2277 24.2803 26.3322 24.2803 26.3322C24.2803 26.3322 23.7259 26.3504 23.5267 26.3355C23.4817 26.3322 23.2271 26.2892 23.2146 26.4553C23.2006 26.6369 23.3481 26.6695 23.4846 26.6973C23.6956 26.74 24.2991 26.6899 24.2991 26.6899C24.2991 26.6899 24.2763 26.7329 24.3574 27.0239C24.4382 27.3145 24.6204 27.5362 24.6204 27.5362C24.6204 27.5362 23.3957 27.8995 22.1215 27.5143Z" fill="#4731D8"/>
<path d="M15.5069 18.2427C15.943 18.3594 15.6692 17.6762 17.0209 17.1673C17.7634 16.8878 18.4688 16.5842 18.6982 16.3536C18.9277 16.1231 19.1852 15.7924 19.2671 15.3201C19.3659 14.7497 19.0771 14.5476 18.8591 14.4757C18.744 14.4379 18.6178 14.4557 18.5153 14.5206C18.3636 14.6162 18.0611 14.7904 17.5369 15.0303C16.4701 15.5188 15.8832 15.8095 15.5353 16.2884C14.9676 17.0709 15.0742 18.127 15.5069 18.2427Z" fill="#4731D8"/>
<path d="M21.5439 19.0734C21.1983 18.5963 20.4313 17.7178 18.9908 17.4331C17.7067 17.1792 17.0497 17.4909 16.9217 17.5617C16.9206 17.5621 16.9194 17.5624 16.9183 17.5628C16.3447 17.7849 16.1123 18.6037 16.3418 19.4689C15.8958 19.3595 15.0145 19.1327 15.0145 19.1327C14.7928 19.1931 14.8688 19.3284 14.9208 19.4274C14.9728 19.5267 15.348 19.8207 15.9729 20.2299C16.479 20.561 16.8814 20.6462 17.0165 20.6666C17.3997 21.0436 17.8627 21.2089 18.2571 21.0566C18.8941 20.8101 19.1107 19.8281 18.741 18.8636C18.616 18.537 18.4397 18.2545 18.2364 18.0329C18.9768 17.8816 19.8724 18.2549 20.4498 18.6048C21.3104 19.1264 21.3528 19.5727 21.5771 19.5356C21.8324 19.4934 21.6395 19.2053 21.5439 19.0734Z" fill="#4731D8"/>
<path d="M39.55 21.8339C39.55 21.8339 39.4994 21.2923 39.2147 21.3902C38.9299 21.4881 38.8498 22.0033 37.1363 22.0033C35.5265 22.0033 34.7529 20.9802 34.519 20.7452C32.4613 18.6775 29.7798 15.5307 27.4137 13.1531C27.1854 12.9236 26.9637 12.4473 26.4321 12.3102C25.9005 12.173 14.0405 10.7855 14.0405 10.7855C14.0405 10.7855 13.3662 10.7577 13.3223 11.3089C13.222 12.5596 12.7952 12.8384 12.3447 13.0767C11.5044 13.5219 10.9617 12.9426 10.0819 13.1983C9.74919 13.2951 7.555 14.3356 5.508 17.8197C4.09071 20.2325 3.94942 21.2975 3.64509 22.7306C3.5916 22.983 3.56135 23.4275 3.8358 23.7452C4.15859 24.1192 4.90117 24.0528 4.83182 25.7988C4.80157 26.562 4.38841 27.0658 3.97303 27.3709C3.79375 27.5025 3.19171 28.024 3.85203 28.6053C5.26748 29.8515 6.58259 30.6637 10.4007 31.4852C14.0483 32.2699 16.0901 31.4503 16.0901 31.4503C16.0901 31.4503 21.0702 33.9043 25.8858 32.158C29.6086 30.8079 31.6095 28.6946 31.6095 28.6946C31.6095 28.6946 34.4836 28.8384 36.5498 27.1477C39.6042 24.6485 39.55 21.8339 39.55 21.8339ZM31.6962 27.7434C30.4641 29.3378 27.462 31.5319 24.2486 32.1235C20.0882 32.8897 17.0238 31.8214 14.8647 29.6517C12.9099 27.6875 12.3447 25.1909 12.3447 25.1909C12.3447 25.1909 12.2149 25.6435 11.6335 25.7821C10.8182 25.9767 9.9447 24.8272 9.52416 23.8245C9.10362 22.8218 9.04386 21.3494 9.97569 20.8353C10.9075 20.3211 11.9751 22.2973 11.9751 22.2973C14.8152 21.6285 14.8956 15.2753 14.8956 15.2753C14.8956 15.2753 18.2994 13.3651 23.3216 14.4008C23.3869 14.4142 23.4119 14.8127 23.5779 15.0495C23.9313 15.5544 24.415 15.6719 25.3435 15.8502C25.9201 15.9611 26.7062 16.0067 26.739 16.0241C29.5334 17.5309 30.4792 19.2224 31.7165 21.6033C33.7886 25.5905 32.4152 26.813 31.6962 27.7434Z" fill="#4731D8"/>
</svg>
