<svg width="24" height="25" viewBox="0 0 24 25" fill="none" xmlns="http://www.w3.org/2000/svg">
<path d="M8.81991 11.5937C8.72618 11.6866 8.65178 11.7972 8.60102 11.9191C8.55025 12.0409 8.52411 12.1717 8.52411 12.3037C8.52411 12.4357 8.55025 12.5664 8.60102 12.6882C8.65178 12.8101 8.72618 12.9207 8.81991 13.0137C9.00727 13.1999 9.26072 13.3045 9.52491 13.3045C9.78909 13.3045 10.0425 13.1999 10.2299 13.0137C10.3236 12.9207 10.398 12.8101 10.4488 12.6882C10.4996 12.5664 10.5257 12.4357 10.5257 12.3037C10.5257 12.1717 10.4996 12.0409 10.4488 11.9191C10.398 11.7972 10.3236 11.6866 10.2299 11.5937C10.0425 11.4074 9.78909 11.3029 9.52491 11.3029C9.26072 11.3029 9.00727 11.4074 8.81991 11.5937ZM11.2899 14.0737C11.1037 14.261 10.9991 14.5145 10.9991 14.7787C10.9991 15.0429 11.1037 15.2963 11.2899 15.4837C11.3829 15.5774 11.4935 15.6518 11.6153 15.7026C11.7372 15.7533 11.8679 15.7795 11.9999 15.7795C12.1319 15.7795 12.2626 15.7533 12.3845 15.7026C12.5063 15.6518 12.6169 15.5774 12.7099 15.4837C12.8962 15.2963 13.0007 15.0429 13.0007 14.7787C13.0007 14.5145 12.8962 14.261 12.7099 14.0737C12.6169 13.9799 12.5063 13.9055 12.3845 13.8548C12.2626 13.804 12.1319 13.7779 11.9999 13.7779C11.8679 13.7779 11.7372 13.804 11.6153 13.8548C11.4935 13.9055 11.3829 13.9799 11.2899 14.0737ZM20.2899 4.07367C19.2021 2.97689 17.7332 2.34192 16.189 2.30094C14.6448 2.25996 13.1443 2.81613 11.9999 3.85367C10.8608 2.82825 9.37237 2.27765 7.84013 2.31484C6.30789 2.35203 4.84797 2.97419 3.75991 4.05367C2.67892 5.14351 2.05676 6.60621 2.02141 8.14082C1.98607 9.67543 2.54024 11.1652 3.56991 12.3037C2.80008 13.1643 2.29495 14.2288 2.11512 15.3694C1.93529 16.51 2.08841 17.6783 2.55611 18.734C3.0238 19.7898 3.7862 20.6881 4.75181 21.3213C5.71743 21.9545 6.84524 22.2956 7.99991 22.3037C9.48013 22.3052 10.9072 21.7522 11.9999 20.7537C13.1396 21.782 14.6301 22.3344 16.1648 22.2972C17.6994 22.26 19.1614 21.636 20.2499 20.5537C21.3295 19.4625 21.9499 17.9991 21.9833 16.4645C22.0168 14.9299 21.4609 13.4409 20.4299 12.3037C21.4609 11.1665 22.0168 9.67741 21.9833 8.14281C21.9499 6.60821 21.3295 5.14481 20.2499 4.05367L20.2899 4.07367ZM18.8299 5.47367C19.5253 6.18905 19.9283 7.13851 19.9598 8.13571C19.9912 9.13292 19.6489 10.1059 18.9999 10.8637L13.4399 5.30367C14.2043 4.6694 15.1743 4.33658 16.1671 4.36789C17.1599 4.3992 18.107 4.79249 18.8299 5.47367ZM5.16991 19.1337C4.47447 18.4183 4.07149 17.4688 4.04004 16.4716C4.00859 15.4744 4.35094 14.5015 4.99991 13.7437L10.5999 19.3437C9.82701 19.9817 8.84633 20.3129 7.84486 20.2742C6.84339 20.2355 5.89122 19.8295 5.16991 19.1337ZM18.8299 19.1337C18.0706 19.8598 17.0605 20.2651 16.0099 20.2651C14.9593 20.2651 13.9492 19.8598 13.1899 19.1337L5.18991 11.1337C4.4449 10.3842 4.02674 9.37041 4.02674 8.31367C4.02674 7.25692 4.4449 6.24312 5.18991 5.49367C5.93936 4.74866 6.95316 4.3305 8.00991 4.3305C9.06665 4.3305 10.0805 4.74866 10.8299 5.49367L18.8299 13.4937C19.5749 14.2431 19.9931 15.2569 19.9931 16.3137C19.9931 17.3704 19.5749 18.3842 18.8299 19.1337ZM13.7699 11.5937C13.6762 11.6866 13.6018 11.7972 13.551 11.9191C13.5002 12.0409 13.4741 12.1717 13.4741 12.3037C13.4741 12.4357 13.5002 12.5664 13.551 12.6882C13.6018 12.8101 13.6762 12.9207 13.7699 13.0137C13.9573 13.1999 14.2107 13.3045 14.4749 13.3045C14.7391 13.3045 14.9925 13.1999 15.1799 13.0137C15.2736 12.9207 15.348 12.8101 15.3988 12.6882C15.4496 12.5664 15.4757 12.4357 15.4757 12.3037C15.4757 12.1717 15.4496 12.0409 15.3988 11.9191C15.348 11.7972 15.2736 11.6866 15.1799 11.5937C14.9925 11.4074 14.7391 11.3029 14.4749 11.3029C14.2107 11.3029 13.9573 11.4074 13.7699 11.5937ZM11.2899 9.12367C11.1037 9.31103 10.9991 9.56448 10.9991 9.82867C10.9991 10.0929 11.1037 10.3463 11.2899 10.5337C11.3829 10.6274 11.4935 10.7018 11.6153 10.7526C11.7372 10.8033 11.8679 10.8295 11.9999 10.8295C12.1319 10.8295 12.2626 10.8033 12.3845 10.7526C12.5063 10.7018 12.6169 10.6274 12.7099 10.5337C12.8962 10.3463 13.0007 10.0929 13.0007 9.82867C13.0007 9.56448 12.8962 9.31103 12.7099 9.12367C12.6169 9.02994 12.5063 8.95554 12.3845 8.90478C12.2626 8.85401 12.1319 8.82787 11.9999 8.82787C11.8679 8.82787 11.7372 8.85401 11.6153 8.90478C11.4935 8.95554 11.3829 9.02994 11.2899 9.12367Z" fill="black"/>
</svg>
