<svg width="25" height="24" viewBox="0 0 25 24" fill="none" xmlns="http://www.w3.org/2000/svg">
<path d="M10.0325 10.5H12.5325C12.7978 10.5 13.0521 10.3947 13.2396 10.2071C13.4272 10.0196 13.5325 9.76522 13.5325 9.50001C13.5325 9.23479 13.4272 8.98044 13.2396 8.7929C13.0521 8.60536 12.7978 8.50001 12.5325 8.50001H11.5325V8.00001C11.5325 7.73479 11.4272 7.48044 11.2396 7.2929C11.0521 7.10536 10.7978 7.00001 10.5325 7.00001C10.2673 7.00001 10.013 7.10536 9.82543 7.2929C9.6379 7.48044 9.53254 7.73479 9.53254 8.00001V8.55001C8.92496 8.67338 8.3849 9.01811 8.0172 9.51727C7.64949 10.0164 7.48038 10.6344 7.54268 11.2513C7.60499 11.8681 7.89427 12.4398 8.35437 12.8553C8.81447 13.2709 9.41256 13.5006 10.0325 13.5H11.0325C11.1651 13.5 11.2923 13.5527 11.3861 13.6465C11.4799 13.7402 11.5325 13.8674 11.5325 14C11.5325 14.1326 11.4799 14.2598 11.3861 14.3536C11.2923 14.4473 11.1651 14.5 11.0325 14.5H8.53254C8.26732 14.5 8.01297 14.6054 7.82543 14.7929C7.6379 14.9804 7.53254 15.2348 7.53254 15.5C7.53254 15.7652 7.6379 16.0196 7.82543 16.2071C8.01297 16.3947 8.26732 16.5 8.53254 16.5H9.53254V17C9.53254 17.2652 9.6379 17.5196 9.82543 17.7071C10.013 17.8947 10.2673 18 10.5325 18C10.7978 18 11.0521 17.8947 11.2396 17.7071C11.4272 17.5196 11.5325 17.2652 11.5325 17V16.45C12.1401 16.3266 12.6802 15.9819 13.0479 15.4827C13.4156 14.9836 13.5847 14.3656 13.5224 13.7488C13.4601 13.1319 13.1708 12.5602 12.7107 12.1447C12.2506 11.7291 11.6525 11.4994 11.0325 11.5H10.0325C9.89993 11.5 9.77275 11.4473 9.67899 11.3536C9.58522 11.2598 9.53254 11.1326 9.53254 11C9.53254 10.8674 9.58522 10.7402 9.67899 10.6465C9.77275 10.5527 9.89993 10.5 10.0325 10.5ZM21.5325 12H18.5325V3.00001C18.5332 2.8238 18.4874 2.65053 18.3996 2.49775C18.3118 2.34498 18.1851 2.21811 18.0325 2.13001C17.8805 2.04224 17.7081 1.99603 17.5325 1.99603C17.357 1.99603 17.1846 2.04224 17.0325 2.13001L14.0325 3.85001L11.0325 2.13001C10.8805 2.04224 10.7081 1.99603 10.5325 1.99603C10.357 1.99603 10.1846 2.04224 10.0325 2.13001L7.03254 3.85001L4.03254 2.13001C3.88052 2.04224 3.70808 1.99603 3.53254 1.99603C3.357 1.99603 3.18456 2.04224 3.03254 2.13001C2.87994 2.21811 2.75332 2.34498 2.66552 2.49775C2.57771 2.65053 2.53184 2.8238 2.53254 3.00001V19C2.53254 19.7957 2.84861 20.5587 3.41122 21.1213C3.97383 21.6839 4.73689 22 5.53254 22H19.5325C20.3282 22 21.0913 21.6839 21.6539 21.1213C22.2165 20.5587 22.5325 19.7957 22.5325 19V13C22.5325 12.7348 22.4272 12.4804 22.2396 12.2929C22.0521 12.1054 21.7978 12 21.5325 12ZM5.53254 20C5.26732 20 5.01297 19.8947 4.82543 19.7071C4.6379 19.5196 4.53254 19.2652 4.53254 19V4.73001L6.53254 5.87001C6.68688 5.95062 6.85842 5.99272 7.03254 5.99272C7.20666 5.99272 7.3782 5.95062 7.53254 5.87001L10.5325 4.15001L13.5325 5.87001C13.6869 5.95062 13.8584 5.99272 14.0325 5.99272C14.2067 5.99272 14.3782 5.95062 14.5325 5.87001L16.5325 4.73001V19C16.5352 19.3412 16.5961 19.6793 16.7125 20H5.53254ZM20.5325 19C20.5325 19.2652 20.4272 19.5196 20.2396 19.7071C20.0521 19.8947 19.7978 20 19.5325 20C19.2673 20 19.013 19.8947 18.8254 19.7071C18.6379 19.5196 18.5325 19.2652 18.5325 19V14H20.5325V19Z" fill="black"/>
</svg>
