<svg width="25" height="24" viewBox="0 0 25 24" fill="none" xmlns="http://www.w3.org/2000/svg">
<path d="M16.0725 11.29L10.4125 5.64004C10.3196 5.54631 10.2089 5.47191 10.0871 5.42115C9.96523 5.37038 9.83453 5.34424 9.70251 5.34424C9.5705 5.34424 9.4398 5.37038 9.31794 5.42115C9.19608 5.47191 9.08548 5.54631 8.99251 5.64004C8.80626 5.8274 8.70172 6.08085 8.70172 6.34504C8.70172 6.60922 8.80626 6.86267 8.99251 7.05004L13.9425 12.05L8.99251 17C8.80626 17.1874 8.70172 17.4409 8.70172 17.705C8.70172 17.9692 8.80626 18.2227 8.99251 18.41C9.08513 18.5045 9.19557 18.5797 9.31745 18.6312C9.43932 18.6827 9.57021 18.7095 9.70251 18.71C9.83482 18.7095 9.9657 18.6827 10.0876 18.6312C10.2095 18.5797 10.3199 18.5045 10.4125 18.41L16.0725 12.76C16.174 12.6664 16.255 12.5527 16.3104 12.4262C16.3658 12.2997 16.3944 12.1631 16.3944 12.025C16.3944 11.8869 16.3658 11.7503 16.3104 11.6238C16.255 11.4973 16.174 11.3837 16.0725 11.29Z" fill="#4731D8"/>
</svg>
