<svg width="25" height="24" viewBox="0 0 25 24" fill="none" xmlns="http://www.w3.org/2000/svg">
<path d="M9.36475 9C9.16697 9 8.97363 9.05865 8.80918 9.16853C8.64473 9.27841 8.51656 9.43459 8.44087 9.61732C8.36518 9.80004 8.34538 10.0011 8.38397 10.1951C8.42255 10.3891 8.51779 10.5673 8.65764 10.7071C8.7975 10.847 8.97568 10.9422 9.16966 10.9808C9.36364 11.0194 9.56471 10.9996 9.74743 10.9239C9.93016 10.8482 10.0863 10.72 10.1962 10.5556C10.3061 10.3911 10.3648 10.1978 10.3648 10C10.3648 9.73478 10.2594 9.48043 10.0719 9.29289C9.88432 9.10536 9.62997 9 9.36475 9ZM15.3648 13C14.4734 13 13.5982 13.2382 12.8299 13.6901C12.0615 14.1419 11.428 14.791 10.9948 15.57C10.8644 15.7996 10.8301 16.0715 10.8994 16.3263C10.9687 16.581 11.136 16.7981 11.3648 16.93C11.5142 17.0147 11.683 17.0595 11.8548 17.06C12.0319 17.0597 12.2059 17.0123 12.3587 16.9227C12.5116 16.8331 12.6379 16.7045 12.7248 16.55C12.9851 16.0784 13.3676 15.6856 13.8322 15.4129C14.2967 15.1402 14.8261 14.9975 15.3648 15C15.63 15 15.8843 14.8946 16.0719 14.7071C16.2594 14.5196 16.3648 14.2652 16.3648 14C16.3648 13.7348 16.2594 13.4804 16.0719 13.2929C15.8843 13.1054 15.63 13 15.3648 13ZM15.3648 9C15.167 9 14.9736 9.05865 14.8092 9.16853C14.6447 9.27841 14.5166 9.43459 14.4409 9.61732C14.3652 9.80004 14.3454 10.0011 14.384 10.1951C14.4226 10.3891 14.5178 10.5673 14.6576 10.7071C14.7975 10.847 14.9757 10.9422 15.1697 10.9808C15.3636 11.0194 15.5647 10.9996 15.7474 10.9239C15.9302 10.8482 16.0863 10.72 16.1962 10.5556C16.3061 10.3911 16.3648 10.1978 16.3648 10C16.3648 9.73478 16.2594 9.48043 16.0719 9.29289C15.8843 9.10536 15.63 9 15.3648 9ZM12.3648 2C10.3869 2 8.45354 2.58649 6.80905 3.6853C5.16456 4.78412 3.88283 6.3459 3.12596 8.17317C2.36908 10.0004 2.17105 12.0111 2.5569 13.9509C2.94275 15.8907 3.89516 17.6725 5.29368 19.0711C6.69221 20.4696 8.47404 21.422 10.4138 21.8079C12.3537 22.1937 14.3643 21.9957 16.1916 21.2388C18.0188 20.4819 19.5806 19.2002 20.6794 17.5557C21.7783 15.9112 22.3647 13.9778 22.3647 12C22.3647 10.6868 22.1061 9.38642 21.6035 8.17317C21.101 6.95991 20.3644 5.85752 19.4358 4.92893C18.5072 4.00035 17.4048 3.26375 16.1916 2.7612C14.9783 2.25866 13.678 2 12.3648 2ZM12.3648 20C10.7825 20 9.23578 19.5308 7.92019 18.6518C6.6046 17.7727 5.57922 16.5233 4.97371 15.0615C4.36821 13.5997 4.20979 11.9911 4.51847 10.4393C4.82715 8.88743 5.58908 7.46197 6.7079 6.34315C7.82672 5.22433 9.25218 4.4624 10.804 4.15372C12.3559 3.84504 13.9644 4.00346 15.4262 4.60896C16.888 5.21447 18.1375 6.23984 19.0165 7.55544C19.8956 8.87103 20.3647 10.4177 20.3647 12C20.3647 14.1217 19.5219 16.1566 18.0216 17.6569C16.5213 19.1571 14.4865 20 12.3648 20Z" fill="#FCFCFC"/>
</svg>
