<svg width="25" height="24" viewBox="0 0 25 24" fill="none" xmlns="http://www.w3.org/2000/svg">
<path d="M15.0248 13.56L10.8348 15.06C10.6145 15.1399 10.4294 15.2945 10.3115 15.497C10.1937 15.6994 10.1506 15.9368 10.1899 16.1678C10.2292 16.3987 10.3483 16.6085 10.5265 16.7606C10.7046 16.9127 10.9305 16.9974 11.1648 17C11.2807 16.9999 11.3958 16.9796 11.5048 16.94L15.7048 15.44C15.8317 15.3981 15.949 15.3312 16.0496 15.2431C16.1503 15.1551 16.2323 15.0478 16.2907 14.9276C16.3492 14.8073 16.3829 14.6766 16.39 14.5431C16.397 14.4095 16.3772 14.276 16.3317 14.1502C16.2862 14.0245 16.216 13.9092 16.1252 13.8111C16.0344 13.7129 15.9248 13.634 15.8029 13.579C15.6811 13.524 15.5494 13.4939 15.4158 13.4907C15.2821 13.4874 15.1491 13.511 15.0248 13.56ZM11.0248 8.56C10.8374 8.37375 10.5839 8.26921 10.3198 8.26921C10.0556 8.26921 9.80211 8.37375 9.61475 8.56C9.52179 8.65373 9.41119 8.72812 9.28933 8.77889C9.16747 8.82966 9.03676 8.8558 8.90475 8.8558C8.77274 8.8558 8.64203 8.82966 8.52017 8.77889C8.39831 8.72812 8.28771 8.65373 8.19475 8.56C8.00739 8.37375 7.75394 8.26921 7.48975 8.26921C7.22556 8.26921 6.97211 8.37375 6.78475 8.56C6.69102 8.65296 6.61663 8.76356 6.56586 8.88542C6.51509 9.00728 6.48895 9.13799 6.48895 9.27C6.48895 9.40201 6.51509 9.53272 6.56586 9.65458C6.61663 9.77644 6.69102 9.88704 6.78475 9.98C7.34725 10.5418 8.10975 10.8574 8.90475 10.8574C9.69975 10.8574 10.4622 10.5418 11.0248 9.98C11.119 9.88405 11.1929 9.77008 11.2421 9.64491C11.2913 9.51974 11.3147 9.38593 11.3109 9.25149C11.3072 9.11706 11.2764 8.98476 11.2204 8.86251C11.1643 8.74026 11.0842 8.63057 10.9848 8.54L11.0248 8.56ZM18.0248 8.56C17.8374 8.37375 17.5839 8.26921 17.3198 8.26921C17.0556 8.26921 16.8021 8.37375 16.6148 8.56C16.5218 8.65373 16.4112 8.72812 16.2893 8.77889C16.1675 8.82966 16.0368 8.8558 15.9048 8.8558C15.7727 8.8558 15.642 8.82966 15.5202 8.77889C15.3983 8.72812 15.2877 8.65373 15.1948 8.56C15.0074 8.37375 14.7539 8.26921 14.4898 8.26921C14.2256 8.26921 13.9721 8.37375 13.7848 8.56C13.691 8.65296 13.6166 8.76356 13.5659 8.88542C13.5151 9.00728 13.489 9.13799 13.489 9.27C13.489 9.40201 13.5151 9.53272 13.5659 9.65458C13.6166 9.77644 13.691 9.88704 13.7848 9.98C14.3473 10.5418 15.1097 10.8574 15.9048 10.8574C16.6998 10.8574 17.4622 10.5418 18.0248 9.98C18.119 9.88405 18.1929 9.77008 18.2421 9.64491C18.2913 9.51974 18.3147 9.38593 18.3109 9.25149C18.3072 9.11706 18.2764 8.98476 18.2204 8.86251C18.1643 8.74026 18.0842 8.63057 17.9848 8.54L18.0248 8.56ZM12.3648 2C10.3869 2 8.45354 2.58649 6.80905 3.6853C5.16456 4.78412 3.88283 6.3459 3.12596 8.17317C2.36908 10.0004 2.17105 12.0111 2.5569 13.9509C2.94275 15.8907 3.89516 17.6725 5.29368 19.0711C6.69221 20.4696 8.47404 21.422 10.4138 21.8079C12.3537 22.1937 14.3643 21.9957 16.1916 21.2388C18.0188 20.4819 19.5806 19.2002 20.6794 17.5557C21.7783 15.9112 22.3647 13.9778 22.3647 12C22.3647 10.6868 22.1061 9.38642 21.6035 8.17317C21.101 6.95991 20.3644 5.85752 19.4358 4.92893C18.5072 4.00035 17.4048 3.26375 16.1916 2.7612C14.9783 2.25866 13.678 2 12.3648 2ZM12.3648 20C10.7825 20 9.23578 19.5308 7.92019 18.6518C6.6046 17.7727 5.57922 16.5233 4.97371 15.0615C4.36821 13.5997 4.20979 11.9911 4.51847 10.4393C4.82715 8.88743 5.58908 7.46197 6.7079 6.34315C7.82672 5.22433 9.25218 4.4624 10.804 4.15372C12.3559 3.84504 13.9644 4.00346 15.4262 4.60896C16.888 5.21447 18.1375 6.23984 19.0165 7.55544C19.8956 8.87103 20.3647 10.4177 20.3647 12C20.3647 14.1217 19.5219 16.1566 18.0216 17.6569C16.5213 19.1571 14.4865 20 12.3648 20Z" fill="#FCFCFC"/>
</svg>
