<svg width="25" height="24" viewBox="0 0 25 24" fill="none" xmlns="http://www.w3.org/2000/svg">
<path d="M9.36475 11C9.56253 11 9.75587 10.9414 9.92032 10.8315C10.0848 10.7216 10.2129 10.5654 10.2886 10.3827C10.3643 10.2 10.3841 9.99889 10.3455 9.80491C10.307 9.61093 10.2117 9.43275 10.0719 9.29289C9.932 9.15304 9.75382 9.0578 9.55984 9.01921C9.36586 8.98063 9.16479 9.00043 8.98207 9.07612C8.79934 9.15181 8.64316 9.27998 8.53328 9.44443C8.4234 9.60888 8.36475 9.80222 8.36475 10C8.36475 10.2652 8.47011 10.5196 8.65764 10.7071C8.84518 10.8946 9.09953 11 9.36475 11ZM12.3648 2C10.3869 2 8.45354 2.58649 6.80905 3.6853C5.16456 4.78412 3.88283 6.3459 3.12596 8.17317C2.36908 10.0004 2.17105 12.0111 2.5569 13.9509C2.94275 15.8907 3.89516 17.6725 5.29368 19.0711C6.69221 20.4696 8.47404 21.422 10.4138 21.8079C12.3537 22.1937 14.3643 21.9957 16.1916 21.2388C18.0188 20.4819 19.5806 19.2002 20.6794 17.5557C21.7783 15.9112 22.3647 13.9778 22.3647 12C22.3647 10.6868 22.1061 9.38642 21.6035 8.17317C21.101 6.95991 20.3644 5.85752 19.4358 4.92893C18.5072 4.00035 17.4048 3.26375 16.1916 2.7612C14.9783 2.25866 13.678 2 12.3648 2ZM12.3648 20C10.7825 20 9.23578 19.5308 7.92019 18.6518C6.6046 17.7727 5.57922 16.5233 4.97371 15.0615C4.36821 13.5997 4.20979 11.9911 4.51847 10.4393C4.82715 8.88743 5.58908 7.46197 6.7079 6.34315C7.82672 5.22433 9.25218 4.4624 10.804 4.15372C12.3559 3.84504 13.9644 4.00346 15.4262 4.60896C16.888 5.21447 18.1375 6.23984 19.0165 7.55544C19.8956 8.87103 20.3647 10.4177 20.3647 12C20.3647 14.1217 19.5219 16.1566 18.0216 17.6569C16.5213 19.1571 14.4865 20 12.3648 20ZM15.3648 13H9.36475C9.09953 13 8.84518 13.1054 8.65764 13.2929C8.47011 13.4804 8.36475 13.7348 8.36475 14C8.36475 15.0609 8.78618 16.0783 9.53632 16.8284C10.2865 17.5786 11.3039 18 12.3648 18C13.4256 18 14.443 17.5786 15.1932 16.8284C15.9433 16.0783 16.3648 15.0609 16.3648 14C16.3648 13.7348 16.2594 13.4804 16.0719 13.2929C15.8843 13.1054 15.63 13 15.3648 13ZM12.3648 16C12.014 15.9996 11.6696 15.9071 11.3659 15.7315C11.0623 15.556 10.8101 15.3037 10.6348 15H14.0948C13.9194 15.3037 13.6672 15.556 13.3636 15.7315C13.0599 15.9071 12.7155 15.9996 12.3648 16ZM15.3648 9C15.167 9 14.9736 9.05865 14.8092 9.16853C14.6447 9.27841 14.5166 9.43459 14.4409 9.61732C14.3652 9.80004 14.3454 10.0011 14.384 10.1951C14.4226 10.3891 14.5178 10.5673 14.6576 10.7071C14.7975 10.847 14.9757 10.9422 15.1697 10.9808C15.3636 11.0194 15.5647 10.9996 15.7474 10.9239C15.9302 10.8482 16.0863 10.72 16.1962 10.5556C16.3061 10.3911 16.3648 10.1978 16.3648 10C16.3648 9.73478 16.2594 9.48043 16.0719 9.29289C15.8843 9.10536 15.63 9 15.3648 9Z" fill="#FCFCFC"/>
</svg>
