<svg width="25" height="24" viewBox="0 0 25 24" fill="none" xmlns="http://www.w3.org/2000/svg">
<path d="M10.3648 11C10.5494 10.9994 10.7303 10.9478 10.8874 10.8507C11.0445 10.7536 11.1717 10.6149 11.2548 10.45C11.3734 10.2138 11.3937 9.94031 11.3112 9.68922C11.2288 9.43813 11.0503 9.22989 10.8148 9.11L8.81475 8.11C8.69692 8.0391 8.56574 7.99327 8.4294 7.97536C8.29305 7.95745 8.15448 7.96785 8.02234 8.00592C7.89021 8.04399 7.76734 8.1089 7.66142 8.1966C7.5555 8.2843 7.46881 8.3929 7.40676 8.51562C7.34471 8.63834 7.30864 8.77254 7.3008 8.90983C7.29296 9.04712 7.31352 9.18455 7.36119 9.31353C7.40887 9.44252 7.48263 9.56029 7.57788 9.65947C7.67312 9.75866 7.7878 9.83714 7.91475 9.89L9.91475 10.89C10.0531 10.964 10.2079 11.0019 10.3648 11ZM12.3648 2C10.3869 2 8.45354 2.58649 6.80905 3.6853C5.16456 4.78412 3.88283 6.3459 3.12596 8.17317C2.36908 10.0004 2.17105 12.0111 2.5569 13.9509C2.94275 15.8907 3.89516 17.6725 5.29368 19.0711C6.69221 20.4696 8.47404 21.422 10.4138 21.8079C12.3537 22.1937 14.3643 21.9957 16.1916 21.2388C18.0188 20.4819 19.5806 19.2002 20.6794 17.5557C21.7783 15.9112 22.3647 13.9778 22.3647 12C22.3647 10.6868 22.1061 9.38642 21.6035 8.17317C21.101 6.95991 20.3644 5.85752 19.4358 4.92893C18.5072 4.00035 17.4048 3.26375 16.1916 2.7612C14.9783 2.25866 13.678 2 12.3648 2ZM12.3648 20C10.7825 20 9.23578 19.5308 7.92019 18.6518C6.6046 17.7727 5.57922 16.5233 4.97371 15.0615C4.36821 13.5997 4.20979 11.9911 4.51847 10.4393C4.82715 8.88743 5.58908 7.46197 6.7079 6.34315C7.82672 5.22433 9.25218 4.4624 10.804 4.15372C12.3559 3.84504 13.9644 4.00346 15.4262 4.60896C16.888 5.21447 18.1375 6.23984 19.0165 7.55544C19.8956 8.87103 20.3647 10.4177 20.3647 12C20.3647 14.1217 19.5219 16.1566 18.0216 17.6569C16.5213 19.1571 14.4865 20 12.3648 20ZM8.72475 15.33C8.52319 15.4993 8.3965 15.7412 8.37217 16.0033C8.34783 16.2654 8.42781 16.5265 8.59475 16.73C8.6787 16.8313 8.7818 16.915 8.89815 16.9763C9.01449 17.0377 9.1418 17.0755 9.27278 17.0875C9.40376 17.0996 9.53583 17.0857 9.66143 17.0467C9.78704 17.0076 9.9037 16.9442 10.0048 16.86C10.6732 16.321 11.5061 16.0271 12.3648 16.0271C13.2234 16.0271 14.0563 16.321 14.7248 16.86C14.9047 17.0091 15.1311 17.0905 15.3648 17.09C15.5683 17.088 15.7664 17.0239 15.9326 16.9063C16.0988 16.7887 16.2251 16.6231 16.2947 16.4318C16.3643 16.2405 16.3738 16.0325 16.322 15.8356C16.2702 15.6387 16.1595 15.4623 16.0048 15.33C14.9729 14.5006 13.6887 14.0484 12.3648 14.0484C11.0408 14.0484 9.75663 14.5006 8.72475 15.33ZM15.9148 8.11L13.9148 9.11C13.6792 9.22989 13.5007 9.43813 13.4183 9.68922C13.3358 9.94031 13.3561 10.2138 13.4748 10.45C13.5579 10.6149 13.685 10.7536 13.8421 10.8507C13.9992 10.9478 14.1801 10.9994 14.3648 11C14.5216 11.0019 14.6764 10.964 14.8148 10.89L16.8148 9.89C17.0311 9.75982 17.1902 9.55261 17.2601 9.30999C17.33 9.06736 17.3055 8.80727 17.1916 8.58194C17.0777 8.35661 16.8827 8.18272 16.6459 8.09518C16.409 8.00764 16.1478 8.01293 15.9148 8.11Z" fill="#FCFCFC"/>
</svg>
