<svg width="24" height="25" viewBox="0 0 24 25" fill="none" xmlns="http://www.w3.org/2000/svg">
<path d="M21.4899 10.2738L20.4899 9.72382L11.4899 4.72382H11.3799C11.3186 4.6979 11.255 4.67781 11.1899 4.66382H10.9999H10.8199C10.7516 4.67782 10.6846 4.6979 10.6199 4.72382H10.5099L1.50988 9.72382C1.35598 9.81104 1.22797 9.93752 1.13891 10.0904C1.04985 10.2432 1.00293 10.4169 1.00293 10.5938C1.00293 10.7707 1.04985 10.9444 1.13891 11.0973C1.22797 11.2501 1.35598 11.3766 1.50988 11.4638L3.99988 12.8438V17.5838C3.99988 18.3795 4.31595 19.1425 4.87856 19.7051C5.44117 20.2677 6.20423 20.5838 6.99988 20.5838H14.9999C15.7955 20.5838 16.5586 20.2677 17.1212 19.7051C17.6838 19.1425 17.9999 18.3795 17.9999 17.5838V12.8438L19.9999 11.7238V14.5838C19.9999 14.849 20.1052 15.1034 20.2928 15.2909C20.4803 15.4785 20.7347 15.5838 20.9999 15.5838C21.2651 15.5838 21.5194 15.4785 21.707 15.2909C21.8945 15.1034 21.9999 14.849 21.9999 14.5838V11.1438C21.9996 10.9666 21.9522 10.7927 21.8626 10.6398C21.773 10.487 21.6443 10.3606 21.4899 10.2738ZM15.9999 17.5838C15.9999 17.849 15.8945 18.1034 15.707 18.2909C15.5194 18.4785 15.2651 18.5838 14.9999 18.5838H6.99988C6.73466 18.5838 6.48031 18.4785 6.29277 18.2909C6.10524 18.1034 5.99988 17.849 5.99988 17.5838V13.9538L10.5099 16.4538L10.6599 16.5138H10.7499C10.8329 16.5243 10.9169 16.5243 10.9999 16.5138C11.0829 16.5243 11.1669 16.5243 11.2499 16.5138H11.3399C11.393 16.5026 11.4437 16.4823 11.4899 16.4538L15.9999 13.9538V17.5838ZM10.9999 14.4438L4.05988 10.5838L10.9999 6.72382L17.9399 10.5838L10.9999 14.4438Z" fill="black"/>
</svg>
