<svg width="20" height="19" viewBox="0 0 20 19" fill="none" xmlns="http://www.w3.org/2000/svg">
<path d="M14.5471 4.88028C14.3572 4.88028 14.1716 4.93306 14.0137 5.03196C13.8558 5.13085 13.7328 5.27141 13.6601 5.43586C13.5875 5.60032 13.5685 5.78128 13.6055 5.95586C13.6425 6.13044 13.734 6.29081 13.8682 6.41667C14.0025 6.54254 14.1735 6.62826 14.3598 6.66298C14.546 6.69771 14.739 6.67989 14.9144 6.61177C15.0898 6.54365 15.2398 6.4283 15.3453 6.28029C15.4508 6.13229 15.5071 5.95828 15.5071 5.78028C15.5071 5.54158 15.4059 5.31266 15.2259 5.14388C15.0458 4.9751 14.8017 4.88028 14.5471 4.88028ZM18.2271 6.69528C18.2115 6.073 18.0872 5.45733 17.8591 4.87278C17.6556 4.37263 17.339 3.91974 16.9311 3.54528C16.5349 3.16085 16.0507 2.86591 15.5151 2.68278C14.8932 2.4624 14.2357 2.34319 13.5711 2.33028C12.7231 2.28528 12.4511 2.28528 10.2751 2.28528C8.09905 2.28528 7.82705 2.28528 6.97905 2.33028C6.31438 2.34319 5.65693 2.4624 5.03505 2.68278C4.5004 2.86776 4.0166 3.16245 3.61906 3.54528C3.209 3.91666 2.8944 4.37061 2.69905 4.87278C2.46398 5.45579 2.33682 6.07214 2.32305 6.69528C2.27505 7.49028 2.27505 7.74528 2.27505 9.78528C2.27505 11.8253 2.27505 12.0803 2.32305 12.8753C2.33682 13.4984 2.46398 14.1148 2.69905 14.6978C2.8944 15.1999 3.209 15.6539 3.61906 16.0253C4.0166 16.4081 4.5004 16.7028 5.03505 16.8878C5.65693 17.1082 6.31438 17.2274 6.97905 17.2403C7.82705 17.2853 8.09905 17.2853 10.2751 17.2853C12.4511 17.2853 12.7231 17.2853 13.5711 17.2403C14.2357 17.2274 14.8932 17.1082 15.5151 16.8878C16.0507 16.7046 16.5349 16.4097 16.9311 16.0253C17.3408 15.6522 17.6577 15.1989 17.8591 14.6978C18.0872 14.1132 18.2115 13.4976 18.2271 12.8753C18.2271 12.0803 18.2751 11.8253 18.2751 9.78528C18.2751 7.74528 18.2751 7.49028 18.2271 6.69528ZM16.7871 12.7853C16.7812 13.2614 16.6893 13.7331 16.5151 14.1803C16.3873 14.5067 16.1822 14.8016 15.9151 15.0428C15.6556 15.2907 15.3416 15.4826 14.9951 15.6053C14.518 15.7686 14.0149 15.8548 13.5071 15.8603C12.7071 15.8978 12.4111 15.9053 10.3071 15.9053C8.20305 15.9053 7.90705 15.9053 7.10706 15.8603C6.57977 15.8695 6.05473 15.7934 5.55505 15.6353C5.22368 15.5063 4.92414 15.3149 4.67506 15.0728C4.40953 14.8318 4.20693 14.5367 4.08306 14.2103C3.88774 13.7566 3.77941 13.2742 3.76305 12.7853C3.76305 12.0353 3.71505 11.7578 3.71505 9.78528C3.71505 7.81278 3.71505 7.53528 3.76305 6.78528C3.76664 6.29857 3.86142 5.81624 4.04305 5.36028C4.18389 5.04371 4.40007 4.76152 4.67506 4.53528C4.91811 4.2774 5.21849 4.0726 5.55505 3.93528C6.0427 3.77031 6.55665 3.68409 7.07506 3.68028C7.87505 3.68028 8.17105 3.63528 10.2751 3.63528C12.3791 3.63528 12.6751 3.63528 13.4751 3.68028C13.9829 3.68574 14.486 3.77196 14.9631 3.93528C15.3266 4.06177 15.6529 4.26741 15.9151 4.53528C16.1772 4.76566 16.3821 5.04733 16.5151 5.36028C16.6929 5.81698 16.7849 6.29911 16.7871 6.78528C16.8271 7.53528 16.8351 7.81278 16.8351 9.78528C16.8351 11.7578 16.8271 12.0353 16.7871 12.7853ZM10.2751 5.93778C9.4637 5.93926 8.67102 6.16617 7.99718 6.58984C7.32333 7.01351 6.79856 7.61493 6.48916 8.31809C6.17977 9.02126 6.09963 9.79463 6.25889 10.5405C6.41815 11.2863 6.80964 11.9712 7.38392 12.5085C7.95819 13.0458 8.68946 13.4115 9.48534 13.5594C10.2812 13.7072 11.106 13.6306 11.8554 13.3392C12.6049 13.0478 13.2454 12.5546 13.696 11.9221C14.1466 11.2895 14.3871 10.5459 14.3871 9.78528C14.3881 9.27911 14.2824 8.77773 14.076 8.31C13.8697 7.84226 13.5667 7.41739 13.1846 7.05982C12.8024 6.70225 12.3486 6.41904 11.8493 6.22648C11.35 6.03391 10.815 5.9358 10.2751 5.93778ZM10.2751 12.2828C9.74817 12.2828 9.23311 12.1363 8.79502 11.8619C8.35692 11.5874 8.01547 11.1974 7.81384 10.741C7.61221 10.2847 7.55945 9.78251 7.66224 9.29804C7.76503 8.81357 8.01876 8.36856 8.39132 8.01928C8.76389 7.67 9.23857 7.43213 9.75533 7.33577C10.2721 7.2394 10.8077 7.28886 11.2945 7.47789C11.7813 7.66692 12.1974 7.98703 12.4901 8.39774C12.7828 8.80845 12.9391 9.29132 12.9391 9.78528C12.9391 10.1133 12.8701 10.438 12.7363 10.741C12.6024 11.044 12.4062 11.3194 12.1588 11.5513C11.9114 11.7832 11.6177 11.9672 11.2945 12.0927C10.9713 12.2182 10.6249 12.2828 10.2751 12.2828Z" fill="#E9F1F4"/>
</svg>
