<svg width="20" height="19" viewBox="0 0 20 19" fill="none" xmlns="http://www.w3.org/2000/svg">
<g clip-path="url(#clip0_307_20003)">
<path d="M14.4954 7.53453C13.782 7.53424 13.0796 7.70032 12.451 8.01793C12.3937 7.87575 12.2917 7.75335 12.1587 7.66701C12.0257 7.58067 11.8679 7.53446 11.7063 7.53453H8.5188C8.41414 7.53447 8.31049 7.55383 8.21378 7.5915C8.11707 7.62918 8.0292 7.68442 7.95519 7.75407C7.88118 7.82373 7.82249 7.90643 7.78246 7.99745C7.74244 8.08847 7.72187 8.18602 7.72193 8.28453V17.2845C7.72187 17.383 7.74244 17.4806 7.78246 17.5716C7.82249 17.6626 7.88118 17.7453 7.95519 17.815C8.0292 17.8846 8.11707 17.9399 8.21378 17.9776C8.31049 18.0152 8.41414 18.0346 8.5188 18.0345H11.7063C11.811 18.0346 11.9146 18.0152 12.0113 17.9776C12.108 17.9399 12.1959 17.8846 12.2699 17.815C12.3439 17.7453 12.4026 17.6626 12.4426 17.5716C12.4827 17.4806 12.5032 17.383 12.5032 17.2845V13.1595C12.5032 12.9606 12.5871 12.7699 12.7366 12.6292C12.886 12.4885 13.0887 12.4095 13.3 12.4095C13.5114 12.4095 13.7141 12.4885 13.8635 12.6292C14.013 12.7699 14.0969 12.9606 14.0969 13.1595V17.2845C14.0969 17.383 14.1174 17.4806 14.1575 17.5716C14.1975 17.6626 14.2562 17.7453 14.3302 17.815C14.4042 17.8846 14.4921 17.9399 14.5888 17.9776C14.6855 18.0152 14.7891 18.0346 14.8938 18.0345H18.0813C18.186 18.0346 18.2896 18.0152 18.3863 17.9776C18.483 17.9399 18.5709 17.8846 18.6449 17.815C18.7189 17.7453 18.7776 17.6626 18.8176 17.5716C18.8577 17.4806 18.8782 17.383 18.8782 17.2845V11.6595C18.8767 10.5659 18.4145 9.51751 17.5929 8.74422C16.7713 7.97092 15.6573 7.53589 14.4954 7.53453ZM17.2844 16.5345H15.6907V13.1595C15.6907 12.5628 15.4388 11.9905 14.9905 11.5685C14.5421 11.1466 13.9341 10.9095 13.3 10.9095C12.666 10.9095 12.058 11.1466 11.6096 11.5685C11.1613 11.9905 10.9094 12.5628 10.9094 13.1595V16.5345H9.31568V9.03453H10.9094V9.56188C10.9095 9.71728 10.9609 9.86881 11.0564 9.99557C11.1519 10.1223 11.2869 10.218 11.4427 10.2695C11.5985 10.3209 11.7675 10.3256 11.9262 10.2828C12.0849 10.24 12.2256 10.1519 12.3289 10.0306C12.6865 9.60315 13.177 9.29145 13.7319 9.13906C14.2869 8.98666 14.8785 9.00117 15.4243 9.18056C15.9701 9.35995 16.4427 9.69527 16.7761 10.1397C17.1096 10.5841 17.2873 11.1155 17.2844 11.6595V16.5345ZM6.12818 7.53453H2.94068C2.83601 7.53447 2.73236 7.55383 2.63566 7.5915C2.53895 7.62918 2.45108 7.68442 2.37707 7.75407C2.30306 7.82373 2.24436 7.90643 2.20434 7.99745C2.16431 8.08847 2.14374 8.18602 2.1438 8.28453V17.2845C2.14374 17.383 2.16431 17.4806 2.20434 17.5716C2.24436 17.6626 2.30306 17.7453 2.37707 17.815C2.45107 17.8846 2.53895 17.9399 2.63565 17.9776C2.73236 18.0152 2.83601 18.0346 2.94068 18.0345H6.12818C6.23284 18.0346 6.33649 18.0152 6.4332 17.9776C6.52991 17.9399 6.61778 17.8846 6.69179 17.815C6.7658 17.7453 6.82449 17.6626 6.86452 17.5716C6.90454 17.4806 6.92511 17.383 6.92505 17.2845V8.28453C6.92511 8.18602 6.90454 8.08847 6.86451 7.99745C6.82449 7.90643 6.76579 7.82373 6.69179 7.75407C6.61778 7.68442 6.52991 7.62918 6.4332 7.5915C6.33649 7.55383 6.23284 7.53447 6.12818 7.53453ZM5.3313 16.5345H3.73755V9.03453H5.3313V16.5345ZM4.5461 1.94178C4.19736 1.92213 3.84801 1.96945 3.51931 2.08086C3.19061 2.19227 2.88942 2.36545 2.63405 2.58985C2.37869 2.81425 2.17449 3.0852 2.03388 3.3862C1.89327 3.68721 1.81917 4.01199 1.81611 4.3408C1.81304 4.6696 1.88107 4.99556 2.01605 5.29884C2.15103 5.60212 2.35015 5.8764 2.60129 6.10499C2.85243 6.33357 3.15034 6.51169 3.47692 6.62851C3.80349 6.74533 4.1519 6.79841 4.50096 6.78453H4.52353C4.87319 6.80408 5.22342 6.75632 5.55281 6.64417C5.88221 6.53202 6.18384 6.35783 6.43929 6.13226C6.69474 5.90669 6.89864 5.63446 7.03853 5.33221C7.17842 5.02997 7.25136 4.70405 7.2529 4.37437C7.25444 4.0447 7.18453 3.71819 7.04747 3.4148C6.9104 3.11141 6.70905 2.83751 6.45571 2.60984C6.20237 2.38216 5.90237 2.2055 5.57403 2.09063C5.2457 1.97577 4.89593 1.92512 4.54609 1.94178H4.5461ZM4.52353 5.28453H4.50096C4.36315 5.30028 4.22336 5.28811 4.09096 5.24885C3.95856 5.20959 3.83661 5.14413 3.73328 5.05688C3.62996 4.96962 3.54765 4.86258 3.49189 4.74294C3.43612 4.62329 3.40818 4.4938 3.40993 4.36316C3.40993 3.80359 3.85584 3.44177 4.5461 3.44177C4.68531 3.4243 4.82689 3.43512 4.96129 3.47348C5.09568 3.51185 5.21979 3.57688 5.32523 3.66419C5.43068 3.75149 5.51503 3.85906 5.57259 3.97963C5.63015 4.1002 5.65959 4.23098 5.65892 4.36316C5.65892 4.92273 5.21301 5.28453 4.52353 5.28453Z" fill="#E9F1F4"/>
</g>
<defs>
<clipPath id="clip0_307_20003">
<rect width="19.125" height="18" fill="white" transform="translate(0.550049 0.785278)"/>
</clipPath>
</defs>
</svg>
