<svg width="86" height="37" viewBox="0 0 86 37" fill="none" xmlns="http://www.w3.org/2000/svg">
<path d="M4.84486 13.1426C4.48798 13.5763 4.6239 14.3082 5.01146 14.7157C5.37361 15.097 5.97337 15.5307 6.9572 15.8446C9.96131 16.8039 11.0758 15.7642 11.0758 15.7642C11.0758 15.7642 11.2073 15.4013 13.7204 12.8951C16.2334 10.3889 17.1629 10.3583 17.1629 10.3583C17.1629 10.3583 16.671 12.2384 13.9221 14.9789C7.76917 21.1149 6.58454 19.4404 6.13647 21.1018C5.94005 21.8302 6.72572 22.7379 7.7832 23.5424C8.7872 24.3067 9.90081 24.9713 10.8557 24.8541C11.7825 24.7404 11.8536 24.3723 13.7458 23.1393C14.7691 22.473 15.3978 22.5176 15.7021 22.821C15.7021 22.821 16.3597 23.3789 14.8357 25.1785C12.7681 27.62 11.1196 29.0733 8.15937 30.8144C6.67836 31.6853 6.15401 31.2306 5.39377 30.4724C4.84749 29.9277 4.85363 29.3418 3.93644 29.0243C2.55978 28.5478 1.24976 29.7947 0.525477 30.6858C0.123001 31.1807 0.107218 31.8812 0.486896 32.3945C0.964781 33.0398 1.80481 33.9388 3.19374 34.7669C5.7375 36.2849 6.71432 36.8813 7.74374 36.7729C8.77317 36.6644 14.7358 35.713 19.0218 30.5345C26.2278 21.8276 19.4796 17.8375 19.4796 17.8375C19.4796 17.8375 20.523 17.0347 21.8918 15.2421C22.9887 13.8045 23.4973 12.4963 23.8586 11.67C24.247 10.7815 24.219 9.7628 23.7726 8.90234C23.4412 8.26399 22.9019 7.442 22.0251 6.44513C19.9276 4.0605 16.2571 3.64426 11.2415 7.26274C6.8511 10.4291 5.68927 12.1177 4.84486 13.1426Z" fill="#FCFCFC"/>
<path d="M25.5895 12.0705L27.5484 14.4464C27.9702 14.9579 28.6743 15.1503 29.2933 14.9107C29.4503 14.8495 29.6195 14.7682 29.7975 14.6589C30.8839 13.9934 31.2022 13.425 31.8432 13.3166C35.0341 12.7779 37.2175 12.0845 39.4263 11.9306C40.4645 11.858 41.2343 11.9192 41.9911 11.788C42.0884 11.7714 42.1805 11.7522 42.2673 11.7312C43.038 11.5449 43.6448 10.9573 43.8596 10.1965C43.9982 9.70509 44.1332 9.00291 44.1332 8.1372C44.1332 7.02839 43.4817 6.08486 42.9933 5.53308C42.7294 5.23402 42.3225 5.1046 41.9332 5.19554C41.7394 5.24101 41.5062 5.27512 41.2571 5.26637C40.5951 5.24364 36.4765 5.65463 33.504 6.65763C30.5315 7.66062 30.1772 7.90285 29.0917 8.08298C28.0061 8.26312 27.0617 8.45375 26.4041 8.8936C26.0016 9.16206 25.5597 9.56693 25.3036 10.1476C25.0239 10.7859 25.1449 11.5309 25.5895 12.0705Z" fill="#FCFCFC"/>
<path d="M27.1669 18.0089C26.2971 18.2196 25.7929 17.9555 25.2966 18.6997C24.6618 19.6502 24.1751 20.2816 24.5758 21.135C24.8003 21.6125 25.6465 22.598 26.1454 23.1358C26.5111 23.5302 26.8425 24.0907 27.5685 24.0085C28.2946 23.9263 28.6769 23.5031 29.9983 22.8918C31.3188 22.2797 33.9301 21.4411 35.5681 21.1928C37.7786 20.8587 40.204 21.2776 40.8906 20.1233C41.2554 19.5103 41.1896 18.3779 40.7941 17.2271C40.3987 16.0763 39.691 15.2211 38.331 15.0113C36.4958 14.7288 33.048 15.8883 31.8607 16.4943C30.6735 17.1029 28.6076 17.66 27.1669 18.0089Z" fill="#FCFCFC"/>
<path d="M24.4311 28.6282C24.8678 28.1595 25.5079 27.9322 26.1436 28.017C26.4909 28.0633 26.8565 28.0948 27.5282 27.8727C28.7856 27.4556 30.691 26.7831 33.1944 26.15C35.6978 25.5169 37.2806 25.7189 38.7581 25.5606C39.4175 25.4898 39.9006 25.3901 40.2329 25.3009C40.7038 25.175 41.2062 25.307 41.5482 25.6533C42.0366 26.1474 42.5794 26.9869 42.4943 28.2408C42.3435 30.4611 42.1313 31.6162 40.3855 31.9695C38.6397 32.3228 37.9101 31.7727 33.5767 32.4513C28.2498 33.2856 28.0262 34.2789 27.3186 34.6305C26.611 34.982 26.0279 34.6934 26.0279 34.6934C26.0279 34.6934 24.4916 33.3144 23.5552 31.8217C22.8703 30.7304 23.257 30.2355 23.8322 29.3794C24.0313 29.0847 24.2409 28.8328 24.4311 28.6282Z" fill="#FCFCFC"/>
<path d="M56.5416 7.87571C56.5416 7.87571 57.1414 8.85335 56.7783 11.0447C56.5512 12.4159 56.2434 13.2886 56.0453 13.7494C55.9629 13.9418 55.8489 14.1184 55.7235 14.2854C55.6086 14.4385 55.4929 14.7052 55.7673 14.9789C56.1891 15.3995 57.4921 16.3334 59.9762 16.1498C62.1254 15.9915 63.0443 15.2849 63.4468 14.525C64.0203 13.4416 64.0483 12.4019 64.0483 9.73217C64.0483 7.35454 63.0505 5.19552 63.0505 5.19552C63.0505 5.19552 59.8631 1.72657 55.1439 3.04349C50.4255 4.36042 46.4762 9.41125 44.3288 15.4415C41.771 22.626 43.9105 29.528 46.5568 31.4676C49.2032 33.4071 52.8649 33.8286 54.3565 33.5094C55.848 33.1902 58.2979 32.0945 61.0469 29.3531C64.108 26.3004 65.3899 23.1192 64.4543 22.1258C63.6537 21.2758 60.4304 21.0144 58.8354 21.3187C57.2404 21.623 57.3728 22.8638 57.2948 23.1891C57.1484 23.8004 56.4267 25.2213 55.3008 26.3441C53.0166 28.6221 52.195 28.6632 52.195 28.6632C52.195 28.6632 50.0178 26.3984 51.9083 18.1365C53.7321 10.1729 56.5416 7.87571 56.5416 7.87571Z" fill="#FCFCFC"/>
<path d="M85.1682 26.8898C84.9253 25.5108 84.1274 23.5284 83.6539 22.4275C83.4022 21.8425 83.1918 21.2409 83.0261 20.6261L79.0495 5.89947C78.9399 5.49373 78.9391 5.06787 79.0285 4.65687C79.096 4.3447 79.1241 3.92234 78.9619 3.47986C78.6383 2.59404 77.4607 1.54995 76.6812 1.20541C75.9016 0.86088 74.5197 0.498858 73.8033 1.13284C72.6818 2.12534 71.0132 5.26112 68.7097 14.2715C66.4062 23.2818 66.272 22.5167 65.0856 26.1203C64.8112 26.9528 63.9527 28.5644 63.4398 29.4957C63.1986 29.9329 63.2355 30.4698 63.5336 30.8712L65.1076 32.99C65.6258 33.6878 66.6096 33.8793 67.3304 33.3914C67.3576 33.373 67.3856 33.3529 67.4137 33.3328C68.4133 32.5912 68.743 32.4373 69.4848 32.1671C70.0986 31.9433 76.9547 30.3832 79.3038 29.8813C79.7642 29.7834 80.2315 29.7318 80.7024 29.723C81.0944 29.716 81.6564 29.6846 82.336 29.591C83.6951 29.403 85.5207 28.8932 85.1682 26.8898ZM70.0565 26.9956L75.7675 11.8195L78.9443 24.1432L70.0565 26.9956Z" fill="#FCFCFC"/>
</svg>
