<svg width="19" height="19" viewBox="0 0 19 19" fill="none" xmlns="http://www.w3.org/2000/svg">
<path d="M16.7818 5.5978H17.3751V3.84776H11.7649L9.90052 10.7227H9.84952L8.00208 3.84776H2.37506V5.59775H2.95134C3.08456 5.61943 3.20816 5.68074 3.30604 5.77368C3.40391 5.86663 3.47152 5.9869 3.50006 6.11882V13.4916C3.46976 13.6188 3.40068 13.7334 3.30237 13.8196C3.20407 13.9058 3.0814 13.9593 2.95134 13.9728H2.37506V15.7228H6.87506V13.9728H5.75006V6.22278H5.8157L8.40889 15.7228H10.4429L13.07 6.22278H13.1251V13.9728H12.0001V15.7228H17.3751V13.9728H16.7818C16.6548 13.9562 16.5358 13.9013 16.4407 13.8153C16.3457 13.7293 16.2792 13.6164 16.2501 13.4916V6.11887C16.2776 5.98934 16.3428 5.87081 16.4374 5.77813C16.532 5.68544 16.6518 5.62271 16.7818 5.5978Z" fill="#E9F1F4"/>
</svg>
