<svg width="25" height="24" viewBox="0 0 25 24" fill="none" xmlns="http://www.w3.org/2000/svg">
<path d="M14.7248 14.23C14.0563 14.769 13.2234 15.0629 12.3648 15.0629C11.5061 15.0629 10.6732 14.769 10.0048 14.23C9.80053 14.0603 9.53725 13.9786 9.27283 14.003C9.0084 14.0274 8.76449 14.1558 8.59475 14.36C8.42501 14.5642 8.34335 14.8275 8.36773 15.0919C8.39211 15.3563 8.52053 15.6003 8.72475 15.77C9.74609 16.6226 11.0343 17.0896 12.3648 17.0896C13.6952 17.0896 14.9834 16.6226 16.0048 15.77C16.209 15.6003 16.3374 15.3563 16.3618 15.0919C16.3862 14.8275 16.3045 14.5642 16.1348 14.36C16.0507 14.2589 15.9476 14.1753 15.8312 14.1141C15.7149 14.0528 15.5876 14.0151 15.4567 14.003C15.1922 13.9786 14.929 14.0603 14.7248 14.23ZM9.57475 10.54C9.76211 10.7263 10.0156 10.8308 10.2798 10.8308C10.5439 10.8308 10.7974 10.7263 10.9848 10.54C11.171 10.3526 11.2755 10.0992 11.2755 9.835C11.2755 9.57081 11.171 9.31736 10.9848 9.13C10.4125 8.58699 9.65365 8.28428 8.86475 8.28428C8.07585 8.28428 7.31703 8.58699 6.74475 9.13C6.64007 9.21965 6.55505 9.32997 6.49502 9.45403C6.435 9.57809 6.40127 9.71323 6.39595 9.85095C6.39063 9.98867 6.41384 10.126 6.46411 10.2543C6.51439 10.3826 6.59065 10.4992 6.6881 10.5967C6.78555 10.6941 6.9021 10.7704 7.03043 10.8206C7.15875 10.8709 7.29608 10.8941 7.4338 10.8888C7.57152 10.8835 7.70666 10.8497 7.83072 10.7897C7.95479 10.7297 8.0651 10.6447 8.15475 10.54C8.24771 10.4463 8.35831 10.3719 8.48017 10.3211C8.60203 10.2703 8.73274 10.2442 8.86475 10.2442C8.99676 10.2442 9.12747 10.2703 9.24933 10.3211C9.37119 10.3719 9.48179 10.4463 9.57475 10.54ZM17.9848 9.13C17.4125 8.58699 16.6536 8.28428 15.8648 8.28428C15.0759 8.28428 14.317 8.58699 13.7448 9.13C13.5809 9.3213 13.4953 9.56738 13.505 9.81905C13.5148 10.0707 13.6191 10.3095 13.7972 10.4876C13.9753 10.6657 14.214 10.77 14.4657 10.7797C14.7174 10.7894 14.9634 10.7038 15.1548 10.54C15.2477 10.4463 15.3583 10.3719 15.4802 10.3211C15.602 10.2703 15.7327 10.2442 15.8648 10.2442C15.9968 10.2442 16.1275 10.2703 16.2493 10.3211C16.3712 10.3719 16.4818 10.4463 16.5747 10.54C16.7621 10.7263 17.0156 10.8308 17.2798 10.8308C17.5439 10.8308 17.7974 10.7263 17.9848 10.54C18.171 10.3526 18.2755 10.0992 18.2755 9.835C18.2755 9.57081 18.171 9.31736 17.9848 9.13ZM12.3648 2C10.3869 2 8.45354 2.58649 6.80905 3.6853C5.16456 4.78412 3.88283 6.3459 3.12596 8.17317C2.36908 10.0004 2.17105 12.0111 2.5569 13.9509C2.94275 15.8907 3.89516 17.6725 5.29368 19.0711C6.69221 20.4696 8.47404 21.422 10.4138 21.8079C12.3537 22.1937 14.3643 21.9957 16.1916 21.2388C18.0188 20.4819 19.5806 19.2002 20.6794 17.5557C21.7783 15.9112 22.3647 13.9778 22.3647 12C22.3647 10.6868 22.1061 9.38642 21.6035 8.17317C21.101 6.95991 20.3644 5.85752 19.4358 4.92893C18.5072 4.00035 17.4048 3.26375 16.1916 2.7612C14.9783 2.25866 13.678 2 12.3648 2ZM12.3648 20C10.7825 20 9.23578 19.5308 7.92019 18.6518C6.6046 17.7727 5.57922 16.5233 4.97371 15.0615C4.36821 13.5997 4.20979 11.9911 4.51847 10.4393C4.82715 8.88743 5.58908 7.46197 6.7079 6.34315C7.82672 5.22433 9.25218 4.4624 10.804 4.15372C12.3559 3.84504 13.9644 4.00346 15.4262 4.60896C16.888 5.21447 18.1375 6.23984 19.0165 7.55544C19.8956 8.87103 20.3647 10.4177 20.3647 12C20.3647 14.1217 19.5219 16.1566 18.0216 17.6569C16.5213 19.1571 14.4865 20 12.3648 20Z" fill="#FCFCFC"/>
</svg>
